<svg width="16" height="16" viewBox="0 0 16 16" fill="none" xmlns="http://www.w3.org/2000/svg">
<path d="M14.1177 2.66673C14.1177 2.17581 13.6963 1.77783 13.1765 1.77783C12.6567 1.77783 12.2354 2.17581 12.2354 2.66673V6.22234C12.2354 6.71326 12.6567 7.11124 13.1765 7.11124C13.6963 7.11124 14.1177 6.71326 14.1177 6.22234V2.66673Z" fill="black"/>
<path d="M15.0589 3.5556H11.2942C10.7744 3.5556 10.353 3.95358 10.353 4.4445C10.353 4.93543 10.7744 5.33341 11.2942 5.33341H15.0589C15.5787 5.33341 16.0001 4.93543 16.0001 4.4445C16.0001 3.95358 15.5787 3.5556 15.0589 3.5556Z" fill="black"/>
<path fill-rule="evenodd" clip-rule="evenodd" d="M0 9.77792C0 8.79569 0.848941 8.00012 1.89082 8.00012H9.40329C10.448 8.00012 11.2941 8.7948 11.2941 9.78326V13.73C11.2941 16.7567 0 16.7567 0 13.73V9.77792Z" fill="black"/>
<path d="M5.64703 7.11121C7.72622 7.11121 9.41174 5.51931 9.41174 3.55561C9.41174 1.5919 7.72622 0 5.64703 0C3.56784 0 1.88232 1.5919 1.88232 3.55561C1.88232 5.51931 3.56784 7.11121 5.64703 7.11121Z" fill="black"/>
</svg>
