<svg width="194" height="67" viewBox="0 0 194 67" fill="none" xmlns="http://www.w3.org/2000/svg">
<path d="M7.9386 13.1358C13.056 7.6324 20.3844 4.30597 27.8887 4.01079C28.323 4.03633 28.919 3.85752 29.1006 4.39963C29.2255 6.49426 29.1517 8.60025 29.1432 10.6977C29.1971 11.3647 28.3428 11.2966 27.9001 11.3534C23.461 11.5804 19.1157 13.2323 15.6445 16.0053C10.5839 19.9675 7.44475 26.2627 7.36244 32.6942C6.84304 32.8673 6.31512 33.0433 5.75882 33.0093C3.84016 32.9865 1.91866 33.0433 0 32.9355C0.11353 25.6553 2.89502 18.4206 7.9386 13.1358Z" fill="#3CC553"/>
<path d="M21.4394 20.677C23.5994 19.3004 26.1424 18.6221 28.6884 18.4915C28.8047 18.5937 29.0346 18.7952 29.151 18.8945C29.1141 21.0658 29.2475 23.2456 29.0999 25.4112C28.6259 25.8738 27.9305 25.8994 27.3345 26.0839C24.5729 26.6969 22.3931 29.1719 21.9702 31.942C21.7914 32.9837 21.8737 34.0452 21.7431 35.0896C21.184 39.2477 18.7119 43.1106 15.1499 45.3329C13.1063 46.6413 10.7335 47.385 8.32386 47.5893C7.92083 47.6972 7.25667 47.6149 7.35033 47.0415C7.3106 45.0349 7.30776 43.0254 7.35318 41.0216C7.30492 40.224 8.26709 40.2638 8.80068 40.0963C11.216 39.6592 13.2709 37.8342 14.1196 35.5494C14.6021 34.3233 14.4715 32.9808 14.639 31.6951C15.0023 27.2248 17.6163 23.0185 21.4394 20.677Z" fill="#3CC553"/>
<path d="M29.2229 33.3668C29.4414 32.8672 30.0091 32.9666 30.449 32.941C32.4017 32.9581 34.3544 32.9212 36.3071 32.995C36.537 39.8777 33.8833 46.7293 29.4386 51.946C24.0203 58.3321 15.7468 62.1467 7.36828 62.1183C7.303 59.7001 7.32571 57.2819 7.35409 54.8666C11.7051 54.702 16.0477 53.4701 19.6381 50.9583C24.6164 47.5268 28.1415 41.9809 28.8737 35.9524C28.9873 35.0896 28.9106 34.1899 29.2229 33.3668Z" fill="#3CC553"/>
<path d="M83.4564 31.2496C83.8689 30.1452 84.5479 29.3201 85.489 28.7658C86.1766 28.3747 86.9114 28.1212 87.7021 28.0095C88.2264 27.9321 88.6948 28.3361 88.6948 28.8646V32.006C88.6948 32.4873 88.3037 32.8568 87.8224 32.8654C86.8083 32.8912 85.8801 33.1791 85.0378 33.7378C83.9806 34.4511 83.4521 35.6329 83.4521 37.2873V44.6701C83.4521 45.1428 83.0696 45.5296 82.5926 45.5296H79.8595C79.3868 45.5296 79.0001 45.1471 79.0001 44.6701V29.144C79.0001 28.6712 79.3825 28.2845 79.8595 28.2845H82.5926C83.0653 28.2845 83.4521 28.667 83.4521 29.144V31.2496H83.4564Z" fill="#101010"/>
<path d="M93.7177 38.6489C94.315 40.8105 95.9351 41.8891 98.5779 41.8891C100.013 41.8891 101.156 41.4808 102.003 40.6601C102.286 40.385 102.708 40.3163 103.047 40.514L105.174 41.743C105.647 42.018 105.742 42.654 105.381 43.0666C103.713 44.9746 101.423 45.9243 98.5092 45.9243C95.5956 45.9243 93.3696 45.0605 91.6464 43.3373C89.9231 41.6141 89.0594 39.4396 89.0594 36.8183C89.0594 34.1969 89.9103 32.0612 91.612 30.3336C93.3137 28.5846 95.4968 27.7123 98.1654 27.7123C100.692 27.7123 102.776 28.5846 104.405 30.3336C106.06 32.0826 106.889 34.2399 106.889 36.8183C106.889 37.1621 106.867 37.5187 106.829 37.8883C106.781 38.318 106.412 38.6446 105.978 38.6446H93.7177V38.6489ZM93.6489 35.2025H102.441C102.188 34.0293 101.659 33.157 100.855 32.5811C100.073 32.0053 99.1795 31.7174 98.1654 31.7174C96.9707 31.7174 95.9823 32.0268 95.2002 32.6499C94.4181 33.2472 93.9024 34.0981 93.6489 35.2025Z" fill="#101010"/>
<path d="M122.876 28.2022H125.6C126.077 28.2022 126.46 28.5889 126.46 29.0616V44.5792C126.46 45.0562 126.073 45.4387 125.6 45.4387H122.876C122.399 45.4387 122.016 45.0519 122.016 44.5792V43.406C120.684 45.0863 118.81 45.9243 116.395 45.9243C113.98 45.9243 112.12 45.0519 110.465 43.3029C108.832 41.5324 108.016 39.3709 108.016 36.8183C108.016 34.2657 108.832 32.117 110.465 30.368C112.12 28.5975 114.096 27.7123 116.395 27.7123C118.81 27.7123 120.684 28.5503 122.016 30.2305V29.0573C122.016 28.5803 122.403 28.1979 122.876 28.1979V28.2022ZM113.808 40.3421C114.707 41.2402 115.845 41.6871 117.22 41.6871C118.596 41.6871 119.739 41.2402 120.633 40.3421C121.552 39.4224 122.012 38.2493 122.012 36.8269C122.012 35.4045 121.552 34.2399 120.633 33.346C119.734 32.4264 118.6 31.9666 117.22 31.9666C115.841 31.9666 114.702 32.4264 113.808 33.346C112.91 34.2442 112.463 35.4045 112.463 36.8269C112.463 38.2493 112.91 39.4224 113.808 40.3421Z" fill="#101010"/>
<path d="M147.757 28.202C149.733 28.202 151.306 28.8466 152.479 30.1315C153.674 31.4207 154.271 33.1439 154.271 35.3055V45.0689C154.271 45.5416 153.889 45.9284 153.412 45.9284H150.679C150.206 45.9284 149.819 45.5459 149.819 45.0689V35.6149C149.819 34.5792 149.566 33.7756 149.063 33.1998C148.556 32.6239 147.843 32.336 146.923 32.336C145.913 32.336 145.118 32.6712 144.542 33.3373C143.992 34.0034 143.713 34.9703 143.713 36.2337V45.0646C143.713 45.5374 143.33 45.9241 142.853 45.9241H140.12C139.648 45.9241 139.261 45.5416 139.261 45.0646V35.6106C139.261 34.5749 139.007 33.7713 138.5 33.1955C137.993 32.6197 137.284 32.3317 136.365 32.3317C135.376 32.3317 134.581 32.6669 133.984 33.333C133.408 33.9991 133.12 34.966 133.12 36.2294V45.0603C133.12 45.5331 132.738 45.9198 132.261 45.9198H129.527C129.055 45.9198 128.668 45.5373 128.668 45.0603V29.5342C128.668 29.0615 129.05 28.6747 129.527 28.6747H132.261C132.733 28.6747 133.12 29.0572 133.12 29.5342V30.5054C134.156 28.9669 135.75 28.1934 137.912 28.1934C140.073 28.1934 141.59 29.0228 142.6 30.6773C143.752 29.0228 145.462 28.1934 147.739 28.1934L147.757 28.202Z" fill="#101010"/>
<path d="M160.864 38.6489C161.461 40.8105 163.081 41.8891 165.724 41.8891C167.159 41.8891 168.302 41.4808 169.149 40.6601C169.432 40.385 169.849 40.3163 170.193 40.514L172.325 41.743C172.797 42.018 172.892 42.654 172.531 43.0623C170.863 44.9703 168.573 45.9243 165.659 45.9243C162.746 45.9243 160.52 45.0605 158.797 43.3373C157.073 41.6141 156.21 39.4396 156.21 36.8183C156.21 34.1969 157.06 32.0612 158.762 30.3336C160.464 28.5846 162.647 27.7123 165.316 27.7123C167.842 27.7123 169.927 28.5846 171.555 30.3336C173.21 32.0826 174.039 34.2399 174.039 36.8183C174.039 37.1621 174.018 37.5187 173.979 37.884C173.932 38.318 173.558 38.6446 173.124 38.6446H160.868L160.864 38.6489ZM160.795 35.2025H169.587C169.334 34.0293 168.805 33.157 168.001 32.5811C167.219 32.0053 166.325 31.7174 165.311 31.7174C164.117 31.7174 163.128 32.0268 162.346 32.6499C161.564 33.2472 161.048 34.0981 160.795 35.2025Z" fill="#101010"/>
<path d="M190.412 21.3049H193.14C193.613 21.3049 194 21.6917 194 22.1644V44.5834C194 45.0561 193.613 45.4429 193.14 45.4429H190.412C189.939 45.4429 189.552 45.0561 189.552 44.5834V43.4103C188.241 45.0905 186.381 45.9285 183.966 45.9285C181.551 45.9285 179.655 45.0561 178.001 43.3071C176.368 41.5367 175.552 39.3751 175.552 36.8225C175.552 34.2699 176.368 32.1213 178.001 30.3723C179.655 28.6018 181.645 27.7165 183.966 27.7165C186.286 27.7165 188.241 28.5545 189.552 30.2347V22.1644C189.552 21.6917 189.939 21.3049 190.412 21.3049ZM181.344 40.3377C182.264 41.2358 183.411 41.6828 184.791 41.6828C186.17 41.6828 187.309 41.2358 188.203 40.3377C189.101 39.4181 189.548 38.2449 189.548 36.8225C189.548 35.4001 189.101 34.2355 188.203 33.3417C187.305 32.4221 186.17 31.9623 184.791 31.9623C183.411 31.9623 182.264 32.4221 181.344 33.3417C180.446 34.2398 179.999 35.4001 179.999 36.8225C179.999 38.2449 180.446 39.4181 181.344 40.3377Z" fill="#101010"/>
<path d="M64.1184 38.2406C64.1184 39.4482 63.8907 40.544 63.4395 41.498C62.9926 42.4477 62.3608 43.2642 61.5615 43.926C60.7665 44.5835 59.804 45.0862 58.6952 45.4214C57.6037 45.7566 56.3876 45.9242 55.0855 45.9242C53.1775 45.9242 51.3254 45.5933 49.5807 44.9487C48.0981 44.3987 46.6929 43.5865 45.3994 42.5336C45.1244 42.3145 44.9568 41.9965 44.9224 41.6441C44.888 41.3003 44.9954 40.9608 45.2189 40.6944L46.68 38.9583C47.1269 38.4211 47.909 38.3438 48.4548 38.7735C49.3916 39.5083 50.3456 40.0971 51.2867 40.5268C52.4255 41.0382 53.7362 41.3003 55.1886 41.3003C56.5251 41.3003 57.5608 40.9952 58.2698 40.3893C58.7855 39.951 59.0734 39.2419 59.039 38.5028C59.0261 38.1891 58.9617 37.9012 58.8542 37.6519C58.7339 37.3812 58.5062 37.119 58.1667 36.8784C57.7971 36.6163 57.2728 36.3627 56.6067 36.1221C55.9192 35.8728 55.0082 35.6107 53.8995 35.34C52.6017 35.0391 51.4242 34.6997 50.4057 34.3258C49.3615 33.9433 48.472 33.4534 47.7543 32.8733C47.0238 32.2803 46.4608 31.554 46.0741 30.7161C45.6959 29.8781 45.4982 28.8553 45.4982 27.6693C45.4982 26.5477 45.7217 25.5163 46.16 24.5967C46.594 23.6857 47.1999 22.8864 47.9606 22.2289C48.7212 21.5757 49.6451 21.0643 50.7023 20.7119C51.7551 20.3681 52.9154 20.192 54.153 20.192C55.9665 20.192 57.6295 20.4627 59.0863 20.9955C60.2681 21.4296 61.4111 22.0312 62.4812 22.7875C62.7605 22.9852 62.9496 23.286 63.0097 23.6255C63.0699 23.965 62.9926 24.3131 62.7906 24.5924L61.4885 26.4274C61.0845 26.9989 60.3153 27.145 59.7309 26.7625C58.8886 26.2039 58.0378 25.7527 57.2084 25.4261C56.1813 25.0221 55.1285 24.8159 54.0842 24.8159C52.9454 24.8159 52.0602 25.0694 51.4543 25.5636C50.8613 26.0492 50.5733 26.6121 50.5733 27.2868C50.5733 27.7079 50.6421 28.0646 50.7753 28.3482C50.9042 28.6276 51.1535 28.894 51.5145 29.1475C51.9098 29.4226 52.4642 29.6804 53.1732 29.9211C53.9037 30.1703 54.8535 30.4324 55.9922 30.7032C57.2814 31.0341 58.4374 31.3993 59.4301 31.7947C60.4528 32.2029 61.3166 32.71 61.9956 33.303C62.6874 33.909 63.216 34.618 63.577 35.4216C63.9337 36.2209 64.1184 37.1706 64.1184 38.2406Z" fill="#101010"/>
<path d="M76.0304 31.0684H72.498V39.1989C72.498 39.8778 72.6656 40.372 73.0051 40.6857C73.3446 40.9994 73.8388 41.1756 74.4919 41.2143C74.926 41.2401 75.4288 41.2444 76.0046 41.2315C76.5031 41.2186 76.9156 41.614 76.9156 42.1124V44.9659C76.9156 45.4257 76.559 45.8081 76.0991 45.8468C73.061 46.1003 70.8908 45.748 69.5844 44.7897C68.162 43.7497 67.453 41.8847 67.453 39.1989V31.0684H64.9347C64.4449 31.0684 64.0495 30.673 64.0495 30.1831V27.1062C64.0495 26.6164 64.4449 26.221 64.9347 26.221H67.453V22.9336C67.453 22.5425 67.7108 22.1944 68.0847 22.0827L71.3463 21.0943C71.9179 20.9224 72.4937 21.3479 72.4937 21.9452V26.221H76.0261C76.516 26.221 76.9113 26.6164 76.9113 27.1062V30.1831C76.9113 30.673 76.516 31.0684 76.0261 31.0684H76.0304Z" fill="#101010"/>
</svg>
